<svg xmlns="http://www.w3.org/2000/svg" viewBox="0 0 300 300"><defs><style>.cls-1{fill:#231f20;}</style></defs><title>Asset 1</title><g id="Layer_2" data-name="Layer 2"><g id="Layer_1-2" data-name="Layer 1"><polygon class="cls-1" points="5 0 0 0 0 10 10 10 5 0"/><polygon class="cls-1" points="35 10 30 0 20 0 15 10 35 10"/><polygon class="cls-1" points="60 10 55 0 45 0 40 10 60 10"/><polygon class="cls-1" points="85 10 80 0 70 0 65 10 85 10"/><polygon class="cls-1" points="110 10 105 0 95 0 90 10 110 10"/><polygon class="cls-1" points="135 10 130 0 120 0 115 10 135 10"/><polygon class="cls-1" points="160 10 155 0 145 0 140 10 160 10"/><polygon class="cls-1" points="185 10 180 0 170 0 165 10 185 10"/><polygon class="cls-1" points="210 10 205 0 195 0 190 10 210 10"/><polygon class="cls-1" points="235 10 230 0 220 0 215 10 235 10"/><polygon class="cls-1" points="260 10 255 0 245 0 240 10 260 10"/><polygon class="cls-1" points="285 10 280 0 270 0 265 10 285 10"/><polygon class="cls-1" points="300 10 300 0 295 0 290 10 300 10"/><polygon class="cls-1" points="12.5 15 2.5 35 22.5 35 12.5 15"/><polygon class="cls-1" points="37.5 15 27.5 35 47.5 35 37.5 15"/><polygon class="cls-1" points="62.5 15 52.5 35 72.5 35 62.5 15"/><polygon class="cls-1" points="87.5 15 77.5 35 97.5 35 87.5 15"/><polygon class="cls-1" points="112.5 15 102.5 35 122.5 35 112.5 15"/><polygon class="cls-1" points="137.5 15 127.5 35 147.5 35 137.5 15"/><polygon class="cls-1" points="162.5 15 152.5 35 172.5 35 162.5 15"/><polygon class="cls-1" points="187.5 15 177.5 35 197.5 35 187.5 15"/><polygon class="cls-1" points="212.5 15 202.5 35 222.5 35 212.5 15"/><polygon class="cls-1" points="237.5 15 227.5 35 247.5 35 237.5 15"/><polygon class="cls-1" points="262.5 15 252.5 35 272.5 35 262.5 15"/><polygon class="cls-1" points="287.5 15 277.5 35 297.5 35 287.5 15"/><polygon class="cls-1" points="0 40 0 60 10 60 0 40"/><polygon class="cls-1" points="35 60 25 40 15 60 35 60"/><polygon class="cls-1" points="60 60 50 40 40 60 60 60"/><polygon class="cls-1" points="85 60 75 40 65 60 85 60"/><polygon class="cls-1" points="110 60 100 40 90 60 110 60"/><polygon class="cls-1" points="135 60 125 40 115 60 135 60"/><polygon class="cls-1" points="160 60 150 40 140 60 160 60"/><polygon class="cls-1" points="185 60 175 40 165 60 185 60"/><polygon class="cls-1" points="210 60 200 40 190 60 210 60"/><polygon class="cls-1" points="235 60 225 40 215 60 235 60"/><polygon class="cls-1" points="260 60 250 40 240 60 260 60"/><polygon class="cls-1" points="285 60 275 40 265 60 285 60"/><polygon class="cls-1" points="300 60 300 40 290 60 300 60"/><polygon class="cls-1" points="12.5 65 2.5 85 22.5 85 12.5 65"/><polygon class="cls-1" points="27.5 85 47.5 85 37.5 65 27.5 85"/><polygon class="cls-1" points="52.5 85 72.5 85 62.5 65 52.5 85"/><polygon class="cls-1" points="77.5 85 97.5 85 87.5 65 77.5 85"/><polygon class="cls-1" points="102.5 85 122.5 85 112.5 65 102.5 85"/><polygon class="cls-1" points="127.5 85 147.5 85 137.5 65 127.5 85"/><polygon class="cls-1" points="152.5 85 172.5 85 162.5 65 152.5 85"/><polygon class="cls-1" points="177.5 85 197.5 85 187.5 65 177.5 85"/><polygon class="cls-1" points="202.5 85 222.5 85 212.5 65 202.5 85"/><polygon class="cls-1" points="227.5 85 247.5 85 237.5 65 227.5 85"/><polygon class="cls-1" points="252.5 85 272.5 85 262.5 65 252.5 85"/><polygon class="cls-1" points="277.5 85 297.5 85 287.5 65 277.5 85"/><polygon class="cls-1" points="0 90 0 110 10 110 0 90"/><polygon class="cls-1" points="15 110 35 110 25 90 15 110"/><polygon class="cls-1" points="40 110 60 110 50 90 40 110"/><polygon class="cls-1" points="65 110 85 110 75 90 65 110"/><polygon class="cls-1" points="90 110 110 110 100 90 90 110"/><polygon class="cls-1" points="115 110 135 110 125 90 115 110"/><polygon class="cls-1" points="140 110 160 110 150 90 140 110"/><polygon class="cls-1" points="165 110 185 110 175 90 165 110"/><polygon class="cls-1" points="190 110 210 110 200 90 190 110"/><polygon class="cls-1" points="215 110 235 110 225 90 215 110"/><polygon class="cls-1" points="240 110 260 110 250 90 240 110"/><polygon class="cls-1" points="275 90 265 110 285 110 275 90"/><polygon class="cls-1" points="300 110 300 90 290 110 300 110"/><polygon class="cls-1" points="12.5 115 2.5 135 22.5 135 12.5 115"/><polygon class="cls-1" points="27.5 135 47.5 135 37.5 115 27.5 135"/><polygon class="cls-1" points="52.5 135 72.5 135 62.5 115 52.5 135"/><polygon class="cls-1" points="77.5 135 97.5 135 87.5 115 77.5 135"/><polygon class="cls-1" points="102.5 135 122.5 135 112.5 115 102.5 135"/><polygon class="cls-1" points="127.5 135 147.5 135 137.5 115 127.5 135"/><polygon class="cls-1" points="152.5 135 172.5 135 162.5 115 152.5 135"/><polygon class="cls-1" points="177.5 135 197.5 135 187.5 115 177.5 135"/><polygon class="cls-1" points="202.5 135 222.5 135 212.5 115 202.5 135"/><polygon class="cls-1" points="227.5 135 247.5 135 237.5 115 227.5 135"/><polygon class="cls-1" points="262.5 115 252.5 135 272.5 135 262.5 115"/><polygon class="cls-1" points="277.5 135 297.5 135 287.5 115 277.5 135"/><polygon class="cls-1" points="0 140 0 160 10 160 0 140"/><polygon class="cls-1" points="35 160 25 140 15 160 35 160"/><polygon class="cls-1" points="40 160 60 160 50 140 40 160"/><polygon class="cls-1" points="65 160 85 160 75 140 65 160"/><polygon class="cls-1" points="90 160 110 160 100 140 90 160"/><polygon class="cls-1" points="115 160 135 160 125 140 115 160"/><polygon class="cls-1" points="140 160 160 160 150 140 140 160"/><polygon class="cls-1" points="165 160 185 160 175 140 165 160"/><polygon class="cls-1" points="190 160 210 160 200 140 190 160"/><polygon class="cls-1" points="215 160 235 160 225 140 215 160"/><polygon class="cls-1" points="240 160 260 160 250 140 240 160"/><polygon class="cls-1" points="275 140 265 160 285 160 275 140"/><polygon class="cls-1" points="300 160 300 140 290 160 300 160"/><polygon class="cls-1" points="12.5 165 2.5 185 22.5 185 12.5 165"/><polygon class="cls-1" points="47.5 185 37.5 165 27.5 185 47.5 185"/><polygon class="cls-1" points="52.5 185 72.5 185 62.5 165 52.5 185"/><polygon class="cls-1" points="77.5 185 97.5 185 87.5 165 77.5 185"/><polygon class="cls-1" points="102.5 185 122.5 185 112.5 165 102.5 185"/><polygon class="cls-1" points="127.5 185 147.5 185 137.5 165 127.5 185"/><polygon class="cls-1" points="152.5 185 172.5 185 162.5 165 152.5 185"/><polygon class="cls-1" points="177.5 185 197.5 185 187.5 165 177.5 185"/><polygon class="cls-1" points="202.5 185 222.5 185 212.5 165 202.5 185"/><polygon class="cls-1" points="227.5 185 247.5 185 237.5 165 227.5 185"/><polygon class="cls-1" points="272.5 185 262.5 165 252.5 185 272.5 185"/><polygon class="cls-1" points="277.5 185 297.5 185 287.5 165 277.5 185"/><polygon class="cls-1" points="0 190 0 210 10 210 0 190"/><polygon class="cls-1" points="35 210 25 190 15 210 35 210"/><polygon class="cls-1" points="50 190 40 210 60 210 50 190"/><polygon class="cls-1" points="75 190 65 210 85 210 75 190"/><polygon class="cls-1" points="100 190 90 210 110 210 100 190"/><polygon class="cls-1" points="125 190 115 210 135 210 125 190"/><polygon class="cls-1" points="150 190 140 210 160 210 150 190"/><polygon class="cls-1" points="175 190 165 210 185 210 175 190"/><polygon class="cls-1" points="200 190 190 210 210 210 200 190"/><polygon class="cls-1" points="225 190 215 210 235 210 225 190"/><polygon class="cls-1" points="250 190 240 210 260 210 250 190"/><polygon class="cls-1" points="275 190 265 210 285 210 275 190"/><polygon class="cls-1" points="300 210 300 190 290 210 300 210"/><polygon class="cls-1" points="12.5 215 2.5 235 22.5 235 12.5 215"/><polygon class="cls-1" points="27.5 235 47.5 235 37.5 215 27.5 235"/><polygon class="cls-1" points="62.5 215 52.5 235 72.5 235 62.5 215"/><polygon class="cls-1" points="87.5 215 77.5 235 97.5 235 87.5 215"/><polygon class="cls-1" points="112.5 215 102.5 235 122.5 235 112.5 215"/><polygon class="cls-1" points="137.5 215 127.5 235 147.5 235 137.5 215"/><polygon class="cls-1" points="162.5 215 152.5 235 172.5 235 162.5 215"/><polygon class="cls-1" points="187.5 215 177.5 235 197.5 235 187.5 215"/><polygon class="cls-1" points="212.5 215 202.5 235 222.5 235 212.5 215"/><polygon class="cls-1" points="237.5 215 227.5 235 247.5 235 237.5 215"/><polygon class="cls-1" points="262.5 215 252.5 235 272.5 235 262.5 215"/><polygon class="cls-1" points="277.5 235 297.5 235 287.5 215 277.5 235"/><polygon class="cls-1" points="0 240 0 260 10 260 0 240"/><polygon class="cls-1" points="35 260 25 240 15 260 35 260"/><polygon class="cls-1" points="50 240 40 260 60 260 50 240"/><polygon class="cls-1" points="75 240 65 260 85 260 75 240"/><polygon class="cls-1" points="100 240 90 260 110 260 100 240"/><polygon class="cls-1" points="125 240 115 260 135 260 125 240"/><polygon class="cls-1" points="150 240 140 260 160 260 150 240"/><polygon class="cls-1" points="175 240 165 260 185 260 175 240"/><polygon class="cls-1" points="200 240 190 260 210 260 200 240"/><polygon class="cls-1" points="225 240 215 260 235 260 225 240"/><polygon class="cls-1" points="250 240 240 260 260 260 250 240"/><polygon class="cls-1" points="275 240 265 260 285 260 275 240"/><polygon class="cls-1" points="300 260 300 240 290 260 300 260"/><polygon class="cls-1" points="12.5 265 2.5 285 22.5 285 12.5 265"/><polygon class="cls-1" points="27.5 285 47.5 285 37.5 265 27.5 285"/><polygon class="cls-1" points="52.5 285 72.5 285 62.5 265 52.5 285"/><polygon class="cls-1" points="77.5 285 97.5 285 87.5 265 77.5 285"/><polygon class="cls-1" points="102.5 285 122.5 285 112.5 265 102.5 285"/><polygon class="cls-1" points="127.5 285 147.5 285 137.5 265 127.5 285"/><polygon class="cls-1" points="152.5 285 172.5 285 162.5 265 152.5 285"/><polygon class="cls-1" points="177.5 285 197.5 285 187.5 265 177.5 285"/><polygon class="cls-1" points="202.5 285 222.5 285 212.5 265 202.5 285"/><polygon class="cls-1" points="227.5 285 247.5 285 237.5 265 227.5 285"/><polygon class="cls-1" points="252.5 285 272.5 285 262.5 265 252.5 285"/><polygon class="cls-1" points="277.5 285 297.5 285 287.5 265 277.5 285"/><polygon class="cls-1" points="0 290 0 300 5 300 0 290"/><polygon class="cls-1" points="20 300 30 300 25 290 20 300"/><polygon class="cls-1" points="45 300 55 300 50 290 45 300"/><polygon class="cls-1" points="70 300 80 300 75 290 70 300"/><polygon class="cls-1" points="95 300 105 300 100 290 95 300"/><polygon class="cls-1" points="120 300 130 300 125 290 120 300"/><polygon class="cls-1" points="145 300 155 300 150 290 145 300"/><polygon class="cls-1" points="170 300 180 300 175 290 170 300"/><polygon class="cls-1" points="195 300 205 300 200 290 195 300"/><polygon class="cls-1" points="220 300 230 300 225 290 220 300"/><polygon class="cls-1" points="245 300 255 300 250 290 245 300"/><polygon class="cls-1" points="270 300 280 300 275 290 270 300"/><polygon class="cls-1" points="300 300 300 290 295 300 300 300"/></g></g></svg>