<svg xmlns="http://www.w3.org/2000/svg" xmlns:xlink="http://www.w3.org/1999/xlink" viewBox="0 0 41.67 41.67"><defs><symbol id="StudioM_Royalty-Free_OpMGT_007" data-name="StudioM Royalty-Free OpMGT 007" viewBox="0 0 283.46 283.47"><path d="M170.08,255.12v28.35l28.35-28.35v28.35l28.35-28.35v28.35l28.35-28.35v28.35l28.35-28.35H141.73v28.35Zm0,0,28.35-28.35v28.35l28.35-28.35v28.35l28.35-28.35v28.35l28.35-28.35H141.73v28.35l28.35-28.35Zm0-28.35,28.35-28.34v28.34l28.35-28.34v28.34l28.35-28.34v28.34l28.35-28.34H141.73v28.34l28.35-28.34Zm0-28.34,28.35-28.35v28.35l28.35-28.35v28.35l28.35-28.35v28.35l28.35-28.35H141.73v28.35l28.35-28.35Zm0-28.35,28.35-28.34v28.34l28.35-28.34v28.34l28.35-28.34v28.34l28.35-28.35H141.73v28.35l28.35-28.34Z"/><path d="M28.35,255.12v28.35l28.35-28.35v28.35L85,255.12v28.35l28.35-28.35v28.35l28.35-28.35H0v28.35Zm0,0,28.35-28.35v28.35L85,226.77v28.35l28.35-28.35v28.35l28.35-28.35H0v28.35l28.35-28.35Zm0-28.35,28.35-28.34v28.34L85,198.43v28.34l28.35-28.34v28.34l28.35-28.34H0v28.34l28.35-28.34Zm0-28.34,28.35-28.35v28.35L85,170.08v28.35l28.35-28.35v28.35l28.35-28.35H0v28.35l28.35-28.35Zm0-28.35,28.35-28.34v28.34L85,141.73v28.34l28.35-28.34v28.34l28.35-28.35H0v28.35l28.35-28.34Z"/><path d="M28.35,113.39v28.35l28.35-28.35v28.35L85,113.39v28.35l28.35-28.35v28.35l28.35-28.35H0v28.35Zm0,0L56.69,85v28.35L85,85v28.35L113.38,85v28.35L141.73,85H0v28.35L28.35,85Zm0-28.35L56.69,56.69V85L85,56.69V85l28.35-28.35V85l28.35-28.35H0V85L28.35,56.69Zm0-28.35L56.69,28.35V56.69L85,28.35V56.69l28.35-28.35V56.69l28.35-28.35H0V56.69L28.35,28.35Zm0-28.35L56.69,0V28.35L85,0V28.35L113.38,0V28.35L141.73,0H0V28.35L28.35,0Z"/><path d="M170.08,113.39v28.35l28.35-28.35v28.35l28.35-28.35v28.35l28.35-28.35v28.35l28.35-28.35H141.73v28.35Zm0,0L198.42,85v28.35L226.77,85v28.35L255.12,85v28.35L283.46,85H141.73v28.35L170.08,85Zm0-28.35,28.35-28.35V85l28.35-28.35V85l28.35-28.35V85l28.35-28.35H141.73V85l28.35-28.35Zm0-28.35,28.35-28.35V56.69l28.35-28.35V56.69l28.35-28.35V56.69l28.35-28.35H141.73V56.69l28.35-28.35Zm0-28.35L198.42,0V28.35L226.77,0V28.35L255.12,0V28.35L283.46,0H141.73V28.35L170.08,0Z"/></symbol></defs><title>less weird</title><g id="Layer_2" data-name="Layer 2"><g id="Vector_Graphics" data-name="Vector Graphics"><use width="283.46" height="283.47" transform="scale(0.15)" xlink:href="#StudioM_Royalty-Free_OpMGT_007"/></g></g></svg>