<svg xmlns="http://www.w3.org/2000/svg" viewBox="0 0 602.35 77.6"><defs><style>.cls-1{fill:#231f20;}.cls-2{fill:#00aeef;}</style></defs><title>logo-with-wordmark</title><g id="Layer_2" data-name="Layer 2"><g id="Layer_1-2" data-name="Layer 1"><path class="cls-1" d="M192.2,77.6H188l-2.62-11c-.3-1.28-.61-2.86-.73-3.66-.09.79-.4,2.41-.7,3.66l-2.68,11h-4l-4.45-21.32h4.45l1.86,10.39c.18,1,.43,2.62.52,3.5.15-.88.49-2.47.73-3.5l2.5-10.39h3.72l2.53,10.39c.24,1,.58,2.62.73,3.5.09-.88.34-2.5.52-3.5l1.86-10.39h4.39Z"/><path class="cls-1" d="M243.49,77.6l-1.68-4.75H234l-1.67,4.75h-4.57l8.16-21.32h4.14l8.1,21.32ZM239,64.93c-.43-1.25-.85-2.53-1.07-3.32-.21.79-.64,2.07-1.07,3.32l-1.37,3.87h4.87Z"/><path class="cls-1" d="M282.59,77.6V56.28h4.26V73.4h10.69v4.2Z"/><path class="cls-1" d="M331.93,77.6V56.28h4.27V73.4h10.69v4.2Z"/><path class="cls-1" d="M390.22,70h-4.69V77.6h-4.26V56.28h9.32c4,0,7.34,2.22,7.34,6.76C397.93,68,394.64,70,390.22,70Zm.21-9.63h-4.9V65.9h5c2,0,3-.91,3-2.77S392.32,60.42,390.43,60.42Z"/><path class="cls-1" d="M444.37,77.6l-1.68-4.75h-7.8l-1.68,4.75h-4.57l8.16-21.32H441l8.1,21.32Zm-4.51-12.67c-.43-1.25-.85-2.53-1.07-3.32-.21.79-.64,2.07-1.07,3.32l-1.37,3.87h4.87Z"/><path class="cls-1" d="M492.43,70h-4.69V77.6h-4.26V56.28h9.32c4,0,7.34,2.22,7.34,6.76C500.13,68,496.85,70,492.43,70Zm.21-9.63h-4.9V65.9h5c2,0,3-.91,3-2.77S494.53,60.42,492.64,60.42Z"/><path class="cls-1" d="M534.64,77.6V56.28h14.8v4.17H538.9v3.68H545v4.14H538.9v5.15h11V77.6Z"/><path class="cls-1" d="M597.25,77.6l-3.81-7.68h-4.29V77.6h-4.26V56.28h9.93c4,0,7.34,2.22,7.34,6.76,0,3.2-1.37,5.21-4.08,6.27l4.08,8.28Zm-2.53-17.18h-5.57V65.9h5.57c2,0,3-.91,3-2.77S596.62,60.42,594.73,60.42Z"/><path class="cls-1" d="M173.1.68h32V11.22H185v5.44h18.37v10.2H185V33h20.75V43.54H173.1Z"/><path class="cls-1" d="M260.17.68,246.23,43.54h-13.6L218.68.68h12.58l8.16,27.55L247.59.68Z"/><path class="cls-1" d="M293.17,44.22c-12.24,0-21.77-9.52-21.77-22.11S280.92,0,293.17,0s21.77,9.52,21.77,22.11S305.41,44.22,293.17,44.22Zm0-11.56c5.44,0,9.86-4.42,9.86-10.54s-4.42-10.54-9.86-10.54S283.3,16,283.3,22.11,287.73,32.65,293.17,32.65Z"/><path class="cls-1" d="M330.92.68h11.9V32h18.71V43.54H330.92Z"/><path class="cls-1" d="M386.37.68V25.51c0,4.42,2.72,7.14,6.8,7.14s6.8-2.72,6.8-7.14V.68h11.9V25.51c0,11.56-7.14,18.71-18.71,18.71s-18.71-7.14-18.71-18.71V.68Z"/><path class="cls-1" d="M450,43.54h-11.9V12.24H426.5V.68h35V12.24H450Z"/><path class="cls-1" d="M488.4,43.54H476.5V.68h11.9Z"/><path class="cls-1" d="M526.16,44.22c-12.24,0-21.77-9.52-21.77-22.11S513.91,0,526.16,0s21.77,9.52,21.77,22.11S538.4,44.22,526.16,44.22Zm0-11.56c5.44,0,9.86-4.42,9.86-10.54s-4.42-10.54-9.86-10.54-9.86,4.42-9.86,10.54S520.72,32.65,526.16,32.65Z"/><path class="cls-1" d="M602.35.68V43.54H591.46L575.82,21.43V43.54h-11.9V.68H574.8l15.65,22.11V.68Z"/><path class="cls-2" d="M147,10V71.79H24.15L147,10M152.74.76,0,77.52H152.74V.76Z"/></g></g></svg>