<svg id="Layer_1" data-name="Layer 1" xmlns="http://www.w3.org/2000/svg" viewBox="0 0 292.67 195.33"><title>shapessmaller</title><path d="M27.54,80.76,8,84.32a.34.34,0,0,0-.27.39l3.55,19.58a.34.34,0,0,0,.39.27L31.21,101a.34.34,0,0,0,.27-.39L27.93,81A.34.34,0,0,0,27.54,80.76Zm2.8,19.05a.34.34,0,0,1-.27.39l-17.64,3.2a.34.34,0,0,1-.39-.27L8.84,85.5a.34.34,0,0,1,.27-.39l17.64-3.2a.34.34,0,0,1,.39.27Z" transform="translate(-3.24 -2.47)"/><path d="M78.88,3.22,59.3,6.77a.34.34,0,0,0-.27.39l3.55,19.58A.34.34,0,0,0,63,27l19.58-3.55a.34.34,0,0,0,.27-.39L79.27,3.49A.34.34,0,0,0,78.88,3.22Zm2.8,19.05a.34.34,0,0,1-.27.39l-17.64,3.2a.34.34,0,0,1-.39-.27L60.18,8a.34.34,0,0,1,.27-.39l17.64-3.2a.34.34,0,0,1,.39.27Z" transform="translate(-3.24 -2.47)"/><path d="M27.83,7.3,8.43,2.88a.34.34,0,0,0-.4.25L3.61,22.53a.34.34,0,0,0,.25.4l19.4,4.42a.34.34,0,0,0,.4-.25L28.08,7.7A.34.34,0,0,0,27.83,7.3ZM22.92,25.92a.34.34,0,0,1-.4.25L5,22.19a.34.34,0,0,1-.25-.4l4-17.48a.34.34,0,0,1,.4-.25L26.65,8a.34.34,0,0,1,.25.4Z" transform="translate(-3.24 -2.47)"/><path d="M94.79,57.91l5.27-19.19a.34.34,0,0,0-.24-.41L80.63,33a.34.34,0,0,0-.41.24L75,52.47a.34.34,0,0,0,.24.41l19.19,5.27A.34.34,0,0,0,94.79,57.91ZM76.4,52.19a.34.34,0,0,1-.24-.41l4.75-17.28a.34.34,0,0,1,.41-.24L98.61,39a.34.34,0,0,1,.24.41L94.1,56.7a.34.34,0,0,1-.41.24Z" transform="translate(-3.24 -2.47)"/><path d="M137.64,32.2,123.78,17.93a.34.34,0,0,0-.48,0L109,31.78a.34.34,0,0,0,0,.48l13.86,14.27a.34.34,0,0,0,.48,0l14.27-13.86A.34.34,0,0,0,137.64,32.2ZM123.38,45.14a.34.34,0,0,1-.48,0L110.42,32.28a.34.34,0,0,1,0-.48l12.86-12.49a.34.34,0,0,1,.48,0l12.49,12.86a.34.34,0,0,1,0,.48Z" transform="translate(-3.24 -2.47)"/><path d="M70.86,42l-19.74-2.5a.34.34,0,0,0-.38.29l-2.5,19.74a.34.34,0,0,0,.29.38l19.74,2.5a.34.34,0,0,0,.38-.29l2.5-19.74A.34.34,0,0,0,70.86,42ZM67.79,61a.34.34,0,0,1-.38.29L49.63,59a.34.34,0,0,1-.29-.38L51.6,40.88a.34.34,0,0,1,.38-.29l17.78,2.26a.34.34,0,0,1,.29.38Z" transform="translate(-3.24 -2.47)"/><path d="M25.86,172l-19.74-2.5a.34.34,0,0,0-.38.29l-2.5,19.74a.34.34,0,0,0,.29.38l19.74,2.5a.34.34,0,0,0,.38-.29l2.5-19.74A.34.34,0,0,0,25.86,172Zm-3.07,19a.34.34,0,0,1-.38.29L4.63,189a.34.34,0,0,1-.29-.38L6.6,170.88a.34.34,0,0,1,.38-.29l17.78,2.26a.34.34,0,0,1,.29.38Z" transform="translate(-3.24 -2.47)"/><path d="M179.86,175l-19.74-2.5a.34.34,0,0,0-.38.29l-2.5,19.74a.34.34,0,0,0,.29.38l19.74,2.5a.34.34,0,0,0,.38-.29l2.5-19.74A.34.34,0,0,0,179.86,175Zm-3.07,19a.34.34,0,0,1-.38.29L158.63,192a.34.34,0,0,1-.29-.38l2.26-17.78a.34.34,0,0,1,.38-.29l17.78,2.26a.34.34,0,0,1,.29.38Z" transform="translate(-3.24 -2.47)"/><path d="M107.76,87.45,88,84.95a.34.34,0,0,0-.38.29L85.14,105a.34.34,0,0,0,.29.38l19.74,2.5a.34.34,0,0,0,.38-.29L108,87.83A.34.34,0,0,0,107.76,87.45Zm-3.07,19a.34.34,0,0,1-.38.29L86.53,104.5a.34.34,0,0,1-.29-.38L88.5,86.34a.34.34,0,0,1,.38-.29l17.78,2.26a.34.34,0,0,1,.29.38Z" transform="translate(-3.24 -2.47)"/><path d="M133.64,86.06A10.31,10.31,0,1,0,144,96.37,10.31,10.31,0,0,0,133.64,86.06Zm0,19.58a9.27,9.27,0,1,1,9.27-9.27A9.27,9.27,0,0,1,133.64,105.65Z" transform="translate(-3.24 -2.47)"/><path d="M111.72,58.25A10.31,10.31,0,1,0,122,68.57,10.31,10.31,0,0,0,111.72,58.25Zm0,19.58A9.27,9.27,0,1,1,121,68.57,9.27,9.27,0,0,1,111.72,77.84Z" transform="translate(-3.24 -2.47)"/><path d="M149.69,3.17A10.31,10.31,0,1,0,160,13.48,10.31,10.31,0,0,0,149.69,3.17Zm0,19.58A9.27,9.27,0,1,1,159,13.48,9.27,9.27,0,0,1,149.69,22.76Z" transform="translate(-3.24 -2.47)"/><path d="M27.76,38.47A10.31,10.31,0,1,0,38.07,48.78,10.31,10.31,0,0,0,27.76,38.47Zm0,19.58A9.27,9.27,0,1,1,37,48.78,9.27,9.27,0,0,1,27.76,58.05Z" transform="translate(-3.24 -2.47)"/><path d="M71.08,86.06A10.31,10.31,0,1,0,81.39,96.37,10.31,10.31,0,0,0,71.08,86.06Zm0,19.58a9.27,9.27,0,1,1,9.27-9.27A9.27,9.27,0,0,1,71.08,105.65Z" transform="translate(-3.24 -2.47)"/><path d="M43.8,63.6A10.31,10.31,0,1,0,54.12,73.91,10.31,10.31,0,0,0,43.8,63.6Zm0,19.58a9.27,9.27,0,1,1,9.27-9.27A9.27,9.27,0,0,1,43.8,83.18Z" transform="translate(-3.24 -2.47)"/><path d="M38.53,32.27l1-.26-.1-.12a.81.81,0,0,1-.17-.64l4.34-19.49c0-.2.19-.24.33-.09L57.25,26.52a.81.81,0,0,1,.17.64l0,.15,1-.26,0-.15a.81.81,0,0,0-.17-.64L43.4,9.79c-.14-.15-.29-.11-.33.09L38.26,31.51a.81.81,0,0,0,.17.64Z" transform="translate(-3.24 -2.47)"/><rect x="38.55" y="28.45" width="19.32" height="1.26" transform="translate(-9.04 10.73) rotate(-14.71)"/><path d="M134.25,70.23l1-.26-.1-.12a.81.81,0,0,1-.17-.64l4.34-19.49c0-.2.19-.24.33-.09L153,64.49a.81.81,0,0,1,.17.64l0,.15,1-.26,0-.15a.81.81,0,0,0-.17-.64L139.13,47.75c-.14-.15-.29-.11-.33.09L134,69.48a.81.81,0,0,0,.17.64Z" transform="translate(-3.24 -2.47)"/><rect x="134.27" y="66.41" width="19.32" height="1.26" transform="translate(-15.55 36.29) rotate(-14.71)"/><path d="M7.31,76.56l1-.06-.08-.13a.81.81,0,0,1,0-.66L16.3,57.46c.08-.19.24-.2.34,0L26.8,74.63a.81.81,0,0,1,0,.66l-.06.14,1-.06.06-.14a.81.81,0,0,0,0-.66L16.53,55.49c-.11-.18-.26-.17-.34,0l-9,20.25a.81.81,0,0,0,0,.66Z" transform="translate(-3.24 -2.47)"/><rect x="7.76" y="74.72" width="19.32" height="1.26" transform="translate(-7.55 -1.34) rotate(-3.31)"/><path d="M70.19,72.3l.86.53v-.16a.81.81,0,0,1,.35-.57L88.49,61.78c.18-.11.31,0,.29.18L87.28,81.87a.81.81,0,0,1-.35.57l-.13.08.86.53.13-.08a.81.81,0,0,0,.35-.57l1.67-22.1c0-.21-.12-.29-.29-.18l-19,11.46a.81.81,0,0,0-.35.57Z" transform="translate(-3.24 -2.47)"/><rect x="69.52" y="76.46" width="19.32" height="1.26" transform="matrix(0.85, 0.52, -0.52, 0.85, 48.88, -32.52)"/><path d="M94.52,4.42l0,1,.14-.07a.81.81,0,0,1,.67,0l17.57,9.48c.18.1.18.25,0,.34L95,24a.81.81,0,0,1-.67,0l-.14-.07,0,1,.14.07a.81.81,0,0,0,.67,0l19.89-9.79c.19-.09.19-.24,0-.34L95.33,4.37a.81.81,0,0,0-.67,0Z" transform="translate(-3.24 -2.47)"/><rect x="85.3" y="13.98" width="19.32" height="1.26" transform="translate(108.09 -82.54) rotate(91.07)"/><path d="M260.06,98l19.58-3.55a.34.34,0,0,0,.27-.39l-3.55-19.58a.34.34,0,0,0-.39-.27l-19.58,3.55a.34.34,0,0,0-.27.39l3.55,19.58A.34.34,0,0,0,260.06,98Zm-2.8-19.05a.34.34,0,0,1,.27-.39l17.64-3.2a.34.34,0,0,1,.39.27l3.2,17.64a.34.34,0,0,1-.27.39l-17.64,3.2a.34.34,0,0,1-.39-.27Z" transform="translate(-3.24 -2.47)"/><path d="M276.06,44l19.58-3.55a.34.34,0,0,0,.27-.39l-3.55-19.58a.34.34,0,0,0-.39-.27l-19.58,3.55a.34.34,0,0,0-.27.39l3.55,19.58A.34.34,0,0,0,276.06,44Zm-2.8-19.05a.34.34,0,0,1,.27-.39l17.64-3.2a.34.34,0,0,1,.39.27l3.2,17.64a.34.34,0,0,1-.27.39l-17.64,3.2a.34.34,0,0,1-.39-.27Z" transform="translate(-3.24 -2.47)"/><path d="M208.72,175.51,228.3,172a.34.34,0,0,0,.27-.39L225,152a.34.34,0,0,0-.39-.27L205,155.27a.34.34,0,0,0-.27.39l3.55,19.58A.34.34,0,0,0,208.72,175.51Zm-2.8-19.05a.34.34,0,0,1,.27-.39l17.64-3.2a.34.34,0,0,1,.39.27l3.2,17.64a.34.34,0,0,1-.27.39l-17.64,3.2a.34.34,0,0,1-.39-.27Z" transform="translate(-3.24 -2.47)"/><path d="M259.77,171.43l19.4,4.42a.34.34,0,0,0,.4-.25L284,156.2a.34.34,0,0,0-.25-.4l-19.4-4.42a.34.34,0,0,0-.4.25L259.52,171A.34.34,0,0,0,259.77,171.43Zm4.91-18.62a.34.34,0,0,1,.4-.25l17.48,4a.34.34,0,0,1,.25.4l-4,17.48a.34.34,0,0,1-.4.25l-17.48-4a.34.34,0,0,1-.25-.4Z" transform="translate(-3.24 -2.47)"/><path d="M192.81,120.82,187.54,140a.34.34,0,0,0,.24.41L207,145.68a.34.34,0,0,0,.41-.24l5.27-19.19a.34.34,0,0,0-.24-.41l-19.19-5.27A.34.34,0,0,0,192.81,120.82Zm18.39,5.72a.34.34,0,0,1,.24.41l-4.75,17.28a.34.34,0,0,1-.41.24L189,139.72a.34.34,0,0,1-.24-.41L193.5,122a.34.34,0,0,1,.41-.24Z" transform="translate(-3.24 -2.47)"/><path d="M150,146.53l13.86,14.27a.34.34,0,0,0,.48,0l14.27-13.86a.34.34,0,0,0,0-.48L164.71,132.2a.34.34,0,0,0-.48,0L150,146.05A.34.34,0,0,0,150,146.53Zm14.26-12.94a.34.34,0,0,1,.48,0l12.49,12.86a.34.34,0,0,1,0,.48l-12.86,12.49a.34.34,0,0,1-.48,0l-12.49-12.86a.34.34,0,0,1,0-.48Z" transform="translate(-3.24 -2.47)"/><path d="M216.74,136.73l19.74,2.5a.34.34,0,0,0,.38-.29l2.5-19.74a.34.34,0,0,0-.29-.38l-19.74-2.5a.34.34,0,0,0-.38.29l-2.5,19.74A.34.34,0,0,0,216.74,136.73Zm3.07-19a.34.34,0,0,1,.38-.29L238,119.69a.34.34,0,0,1,.29.38L236,137.84a.34.34,0,0,1-.38.29l-17.78-2.26a.34.34,0,0,1-.29-.38Z" transform="translate(-3.24 -2.47)"/><path d="M179.84,91.28l19.74,2.5a.34.34,0,0,0,.38-.29l2.5-19.74a.34.34,0,0,0-.29-.38l-19.74-2.5a.34.34,0,0,0-.38.29l-2.5,19.74A.34.34,0,0,0,179.84,91.28Zm3.07-19a.34.34,0,0,1,.38-.29l17.78,2.26a.34.34,0,0,1,.29.38L199.1,92.39a.34.34,0,0,1-.38.29l-17.78-2.26a.34.34,0,0,1-.29-.38Z" transform="translate(-3.24 -2.47)"/><path d="M154,92.67a10.31,10.31,0,1,0-10.31-10.31A10.31,10.31,0,0,0,154,92.67Zm0-19.58a9.27,9.27,0,1,1-9.27,9.27A9.27,9.27,0,0,1,154,73.08Z" transform="translate(-3.24 -2.47)"/><path d="M175.88,120.48a10.31,10.31,0,1,0-10.31-10.31A10.31,10.31,0,0,0,175.88,120.48Zm0-19.58a9.27,9.27,0,1,1-9.27,9.27A9.27,9.27,0,0,1,175.88,100.89Z" transform="translate(-3.24 -2.47)"/><path d="M137.91,175.56a10.31,10.31,0,1,0-10.31-10.31A10.31,10.31,0,0,0,137.91,175.56Zm0-19.58a9.27,9.27,0,1,1-9.27,9.27A9.27,9.27,0,0,1,137.91,156Z" transform="translate(-3.24 -2.47)"/><path d="M259.84,140.26A10.31,10.31,0,1,0,249.53,130,10.31,10.31,0,0,0,259.84,140.26Zm0-19.58a9.27,9.27,0,1,1-9.27,9.27A9.27,9.27,0,0,1,259.84,120.68Z" transform="translate(-3.24 -2.47)"/><path d="M216.52,92.67a10.31,10.31,0,1,0-10.31-10.31A10.31,10.31,0,0,0,216.52,92.67Zm0-19.58a9.27,9.27,0,1,1-9.27,9.27A9.27,9.27,0,0,1,216.52,73.08Z" transform="translate(-3.24 -2.47)"/><path d="M243.79,115.13a10.31,10.31,0,1,0-10.31-10.31A10.31,10.31,0,0,0,243.79,115.13Zm0-19.58a9.27,9.27,0,1,1-9.27,9.27A9.27,9.27,0,0,1,243.79,95.54Z" transform="translate(-3.24 -2.47)"/><path d="M249.07,146.46l-1,.26.1.12a.81.81,0,0,1,.17.64L244,167c0,.2-.19.24-.33.09l-13.36-14.84a.81.81,0,0,1-.17-.64l0-.15-1,.26,0,.15a.81.81,0,0,0,.17.64l14.82,16.48c.14.15.29.11.33-.09l4.82-21.63a.81.81,0,0,0-.17-.64Z" transform="translate(-3.24 -2.47)"/><rect x="229.73" y="149.03" width="19.32" height="1.26" transform="translate(505.7 231.13) rotate(165.29)"/><path d="M153.35,108.49l-1,.26.1.12a.81.81,0,0,1,.17.64L148.31,129c0,.2-.19.24-.33.09l-13.36-14.84a.81.81,0,0,1-.17-.64l0-.15-1,.26,0,.15a.81.81,0,0,0,.17.64L148.47,131c.14.15.29.11.33-.09l4.82-21.63a.81.81,0,0,0-.17-.64Z" transform="translate(-3.24 -2.47)"/><rect x="134" y="111.06" width="19.32" height="1.26" transform="translate(307.75 180.75) rotate(165.29)"/><path d="M280.29,102.16l-1,.06.08.13a.81.81,0,0,1,0,.66l-8.11,18.25c-.08.19-.24.2-.34,0L260.8,104.1a.81.81,0,0,1,0-.66l.06-.14-1,.06-.06.14a.81.81,0,0,0,0,.66l11.27,19.08c.11.18.26.17.34,0l9-20.25a.81.81,0,0,0,0-.66Z" transform="translate(-3.24 -2.47)"/><rect x="260.51" y="102.75" width="19.32" height="1.26" transform="translate(542.62 188.54) rotate(176.69)"/><path d="M217.41,106.43l-.86-.53v.16a.81.81,0,0,1-.35.57L199.1,117c-.18.11-.31,0-.29-.18l1.51-19.91a.81.81,0,0,1,.35-.57l.13-.08-.86-.53-.13.08a.81.81,0,0,0-.35.57l-1.67,22.1c0,.21.12.29.29.18l19-11.46a.81.81,0,0,0,.35-.57Z" transform="translate(-3.24 -2.47)"/><rect x="198.75" y="101.01" width="19.32" height="1.26" transform="translate(329.46 294.93) rotate(-148.41)"/><path d="M200.58,197.21a10.31,10.31,0,1,0-10.82-9.78A10.31,10.31,0,0,0,200.58,197.21Zm-1-19.56a9.27,9.27,0,1,1-8.79,9.73A9.27,9.27,0,0,1,199.58,177.65Z" transform="translate(-3.24 -2.47)"/><path d="M186.72,41.74l-19.37,4.54a.34.34,0,0,0-.25.4l4.54,19.37a.34.34,0,0,0,.4.25l19.37-4.54a.34.34,0,0,0,.25-.4L187.12,42A.34.34,0,0,0,186.72,41.74Zm3.76,18.89a.34.34,0,0,1-.25.4l-17.45,4.09a.34.34,0,0,1-.4-.25l-4.09-17.45a.34.34,0,0,1,.25-.4L186,42.92a.34.34,0,0,1,.4.25Z" transform="translate(-3.24 -2.47)"/><path d="M266.22,182.65,251.65,169.1a.34.34,0,0,0-.47,0l-13.55,14.57a.34.34,0,0,0,0,.47l14.57,13.55a.34.34,0,0,0,.47,0l13.55-14.57A.34.34,0,0,0,266.22,182.65ZM252.63,196.3a.34.34,0,0,1-.47,0L239,184.11a.34.34,0,0,1,0-.47l12.21-13.12a.34.34,0,0,1,.47,0l13.12,12.21a.34.34,0,0,1,0,.47Z" transform="translate(-3.24 -2.47)"/><path d="M233,5.82l-19.84-1.5a.34.34,0,0,0-.36.31l-1.5,19.84a.34.34,0,0,0,.31.36l19.84,1.5a.34.34,0,0,0,.36-.31l1.5-19.84A.34.34,0,0,0,233,5.82ZM230.92,25a.34.34,0,0,1-.36.31l-17.87-1.35a.34.34,0,0,1-.31-.36l1.35-17.87a.34.34,0,0,1,.36-.31L232,6.73a.34.34,0,0,1,.31.36Z" transform="translate(-3.24 -2.47)"/><path d="M267.18,44.35l-19.84-1.5a.34.34,0,0,0-.36.31L245.48,63a.34.34,0,0,0,.31.36l19.84,1.5a.34.34,0,0,0,.36-.31l1.5-19.84A.34.34,0,0,0,267.18,44.35Zm-2.1,19.14a.34.34,0,0,1-.36.31l-17.87-1.35a.34.34,0,0,1-.31-.36l1.35-17.87a.34.34,0,0,1,.36-.31l17.87,1.35a.34.34,0,0,1,.31.36Z" transform="translate(-3.24 -2.47)"/><path d="M284,50.64a10.31,10.31,0,1,0,10.82,9.78A10.31,10.31,0,0,0,284,50.64Zm1,19.56a9.27,9.27,0,1,1,8.79-9.73A9.27,9.27,0,0,1,285,70.2Z" transform="translate(-3.24 -2.47)"/><path d="M261.65,5a10.31,10.31,0,1,0,10.82,9.78A10.31,10.31,0,0,0,261.65,5Zm1,19.56a9.27,9.27,0,1,1,8.79-9.73A9.27,9.27,0,0,1,262.64,24.54Z" transform="translate(-3.24 -2.47)"/><path d="M186.8,2.48a10.31,10.31,0,1,0,10.82,9.78A10.31,10.31,0,0,0,186.8,2.48Zm1,19.56a9.27,9.27,0,1,1,8.79-9.73A9.27,9.27,0,0,1,187.79,22Z" transform="translate(-3.24 -2.47)"/><path d="M230.47,44.82a10.31,10.31,0,1,0,10.82,9.78A10.31,10.31,0,0,0,230.47,44.82Zm1,19.56a9.27,9.27,0,1,1,8.79-9.73A9.27,9.27,0,0,1,231.47,64.38Z" transform="translate(-3.24 -2.47)"/><path d="M202.09,23.77a10.31,10.31,0,1,0,10.82,9.78A10.31,10.31,0,0,0,202.09,23.77Zm1,19.56a9.27,9.27,0,1,1,8.79-9.73A9.27,9.27,0,0,1,203.09,43.33Z" transform="translate(-3.24 -2.47)"/><path d="M274.76,144.81l1-.3-.11-.11a.81.81,0,0,1-.2-.63l3.34-19.68c0-.2.18-.25.33-.1l14.09,14.15a.81.81,0,0,1,.2.63l0,.15,1-.3,0-.15a.81.81,0,0,0-.2-.63l-15.64-15.7c-.15-.15-.29-.1-.33.1l-3.71,21.85a.81.81,0,0,0,.2.63Z" transform="translate(-3.24 -2.47)"/><rect x="274.61" y="140.5" width="19.32" height="1.26" transform="translate(-32.62 90.21) rotate(-17.62)"/><path d="M166.3,38.57l1-.11-.09-.13a.81.81,0,0,1-.07-.66L174.32,19c.07-.19.23-.21.34,0l11,16.65a.81.81,0,0,1,.07.66l-.06.15,1-.11.06-.15a.81.81,0,0,0-.07-.66L174.45,17.06c-.11-.17-.27-.16-.34,0l-8,20.68a.81.81,0,0,0,.07.66Z" transform="translate(-3.24 -2.47)"/><rect x="166.68" y="36.22" width="19.32" height="1.26" transform="translate(-6.19 16.83) rotate(-6.21)"/><path d="M228.88,31.12l.88.48v-.16a.81.81,0,0,1,.32-.58l16.54-11.18c.17-.12.31,0,.3.16l-.49,20a.81.81,0,0,1-.32.58l-.13.09.88.48.13-.09a.81.81,0,0,0,.32-.58l.55-22.16c0-.21-.13-.28-.3-.16L229.21,30.38a.81.81,0,0,0-.32.58Z" transform="translate(-3.24 -2.47)"/><rect x="228.45" y="34.82" width="19.32" height="1.26" transform="translate(43 -112.41) rotate(28.68)"/><path d="M193.08,174.31l0-1-.14.07a.81.81,0,0,1-.67,0l-17.57-9.48c-.18-.1-.18-.25,0-.34l17.92-8.82a.81.81,0,0,1,.67,0l.14.07,0-1-.14-.07a.81.81,0,0,0-.67,0l-19.89,9.79c-.19.09-.19.24,0,.34l19.51,10.52a.81.81,0,0,0,.67,0Z" transform="translate(-3.24 -2.47)"/><rect x="182.98" y="163.5" width="19.32" height="1.26" transform="matrix(0.02, -1, 1, 0.02, 21.72, 351.21)"/><path d="M47.4,132.1l-3.55-19.58a.34.34,0,0,0-.39-.27l-19.58,3.55a.34.34,0,0,0-.27.39l3.55,19.58a.34.34,0,0,0,.39.27l19.58-3.55A.34.34,0,0,0,47.4,132.1Zm-19.05,2.8a.34.34,0,0,1-.39-.27L24.76,117a.34.34,0,0,1,.27-.39l17.64-3.2a.34.34,0,0,1,.39.27l3.2,17.64a.34.34,0,0,1-.27.39Z" transform="translate(-3.24 -2.47)"/><path d="M124.94,183.44l-3.55-19.58a.34.34,0,0,0-.39-.27l-19.58,3.55a.34.34,0,0,0-.27.39l3.55,19.58a.34.34,0,0,0,.39.27l19.58-3.55A.34.34,0,0,0,124.94,183.44Zm-19.05,2.8a.34.34,0,0,1-.39-.27l-3.2-17.64a.34.34,0,0,1,.27-.39l17.64-3.2a.34.34,0,0,1,.39.27l3.2,17.64a.34.34,0,0,1-.27.39Z" transform="translate(-3.24 -2.47)"/><path d="M120.86,132.39l4.42-19.4a.34.34,0,0,0-.25-.4l-19.4-4.42a.34.34,0,0,0-.4.25l-4.42,19.4a.34.34,0,0,0,.25.4l19.4,4.42A.34.34,0,0,0,120.86,132.39Zm-18.62-4.91a.34.34,0,0,1-.25-.4l4-17.48a.34.34,0,0,1,.4-.25l17.48,4a.34.34,0,0,1,.25.4l-4,17.48a.34.34,0,0,1-.4.25Z" transform="translate(-3.24 -2.47)"/><path d="M86.17,175.42l2.5-19.74a.34.34,0,0,0-.29-.38l-19.74-2.5a.34.34,0,0,0-.38.29l-2.5,19.74a.34.34,0,0,0,.29.38l19.74,2.5A.34.34,0,0,0,86.17,175.42Zm-19-3.07a.34.34,0,0,1-.29-.38l2.26-17.78a.34.34,0,0,1,.38-.29l17.78,2.26a.34.34,0,0,1,.29.38l-2.26,17.78a.34.34,0,0,1-.38.29Z" transform="translate(-3.24 -2.47)"/><path d="M89.7,132.33a10.31,10.31,0,1,0-10.31,10.31A10.31,10.31,0,0,0,89.7,132.33Zm-19.58,0a9.27,9.27,0,1,1,9.27,9.27A9.27,9.27,0,0,1,70.11,132.33Z" transform="translate(-3.24 -2.47)"/><path d="M51.1,169.64A10.31,10.31,0,1,0,40.79,180,10.31,10.31,0,0,0,51.1,169.64Zm-19.58,0a9.27,9.27,0,1,1,9.27,9.27A9.27,9.27,0,0,1,31.52,169.64Z" transform="translate(-3.24 -2.47)"/><path d="M64.56,148.37a10.31,10.31,0,1,0-10.31,10.31A10.31,10.31,0,0,0,64.56,148.37Zm-19.58,0a9.27,9.27,0,1,1,9.27,9.27A9.27,9.27,0,0,1,45,148.37Z" transform="translate(-3.24 -2.47)"/><path d="M95.9,143.09l.26,1,.12-.1a.81.81,0,0,1,.64-.17l19.49,4.34c.2,0,.24.19.09.33l-14.84,13.36a.81.81,0,0,1-.64.17l-.15,0,.26,1,.15,0a.81.81,0,0,0,.64-.17L118.38,148c.15-.14.11-.29-.09-.33l-21.63-4.82A.81.81,0,0,0,96,143Z" transform="translate(-3.24 -2.47)"/><rect x="89.43" y="152.15" width="19.32" height="1.26" transform="translate(218.45 15.66) rotate(75.29)"/><path d="M232.9,69.09l.26,1,.12-.1a.81.81,0,0,1,.64-.17l19.49,4.34c.2,0,.24.19.09.33L238.65,87.82A.81.81,0,0,1,238,88l-.15,0,.26,1,.15,0a.81.81,0,0,0,.64-.17L255.38,74c.15-.14.11-.29-.09-.33l-21.63-4.82A.81.81,0,0,0,233,69Z" transform="translate(-3.24 -2.47)"/><rect x="226.43" y="78.15" width="19.32" height="1.26" transform="translate(249.08 -172.05) rotate(75.29)"/><path d="M11.9,140.09l.26,1,.12-.1a.81.81,0,0,1,.64-.17l19.49,4.34c.2,0,.24.19.09.33L17.65,158.82A.81.81,0,0,1,17,159l-.15,0,.26,1,.15,0a.81.81,0,0,0,.64-.17L34.38,145c.15-.14.11-.29-.09-.33l-21.63-4.82A.81.81,0,0,0,12,140Z" transform="translate(-3.24 -2.47)"/><rect x="5.43" y="149.15" width="19.32" height="1.26" transform="translate(152.88 94.67) rotate(75.29)"/><path d="M51.6,111.87l.06,1,.13-.08a.81.81,0,0,1,.66,0l18.25,8.11c.19.08.2.24,0,.34L53.53,131.36a.81.81,0,0,1-.66,0l-.14-.06.06,1,.14.06a.81.81,0,0,0,.66,0L72.67,121.1c.18-.11.17-.26,0-.34l-20.25-9a.81.81,0,0,0-.66,0Z" transform="translate(-3.24 -2.47)"/><rect x="43.15" y="121.36" width="19.32" height="1.26" transform="translate(168.32 59.76) rotate(86.69)"/><path d="M55.87,174.75l-.53.86h.16a.81.81,0,0,1,.57.35l10.33,17.09c.11.18,0,.31-.18.29L46.3,191.85a.81.81,0,0,1-.57-.35l-.08-.13-.53.86.08.13a.81.81,0,0,0,.57.35l22.1,1.67c.21,0,.29-.12.18-.29l-11.46-19a.81.81,0,0,0-.57-.35Z" transform="translate(-3.24 -2.47)"/><rect x="41.41" y="183.12" width="19.32" height="1.26" transform="translate(231.1 234.03) rotate(121.59)"/></svg>