<svg id="Layer_1" data-name="Layer 1" xmlns="http://www.w3.org/2000/svg" viewBox="0 0 292.46 196.32"><title>shapes</title><path d="M48.36,148.52l-36.61,6.65a.63.63,0,0,0-.51.73l6.65,36.61a.63.63,0,0,0,.73.51l36.61-6.65a.63.63,0,0,0,.51-.73L49.09,149A.63.63,0,0,0,48.36,148.52Zm5.23,35.63a.63.63,0,0,1-.51.73l-33,6a.63.63,0,0,1-.73-.51l-6-33a.63.63,0,0,1,.51-.73l33-6a.63.63,0,0,1,.73.51Z" transform="translate(-3.6 -2.87)"/><path d="M144.36,3.52l-36.61,6.65a.63.63,0,0,0-.51.73l6.65,36.61a.63.63,0,0,0,.73.51l36.61-6.65a.63.63,0,0,0,.51-.73L145.09,4A.63.63,0,0,0,144.36,3.52Zm5.23,35.63a.63.63,0,0,1-.51.73l-33,6a.63.63,0,0,1-.73-.51l-6-33a.63.63,0,0,1,.51-.73l33-6a.63.63,0,0,1,.73.51Z" transform="translate(-3.6 -2.87)"/><path d="M48.91,11.15,12.63,2.89a.63.63,0,0,0-.75.47L3.61,39.64a.63.63,0,0,0,.47.75l36.28,8.26a.63.63,0,0,0,.75-.47L49.38,11.9A.63.63,0,0,0,48.91,11.15ZM39.73,46a.63.63,0,0,1-.75.47L6.29,39a.63.63,0,0,1-.47-.75L13.27,5.57A.63.63,0,0,1,14,5.09L46.7,12.54a.63.63,0,0,1,.47.75Z" transform="translate(-3.6 -2.87)"/><path d="M174.12,105.8,184,69.92a.63.63,0,0,0-.44-.77L147.65,59.3a.63.63,0,0,0-.77.44L137,95.62a.63.63,0,0,0,.44.77l35.88,9.85A.63.63,0,0,0,174.12,105.8ZM139.73,95.1a.63.63,0,0,1-.44-.77L148.17,62a.63.63,0,0,1,.77-.44l32.32,8.87a.63.63,0,0,1,.44.77l-8.87,32.32a.63.63,0,0,1-.77.44Z" transform="translate(-3.6 -2.87)"/><path d="M254.25,57.72,228.33,31a.63.63,0,0,0-.89,0L200.75,56.93a.63.63,0,0,0,0,.89l25.92,26.69a.63.63,0,0,0,.89,0l26.69-25.92A.63.63,0,0,0,254.25,57.72Zm-26.67,24.2a.63.63,0,0,1-.89,0l-23.35-24a.63.63,0,0,1,0-.89l24-23.35a.63.63,0,0,1,.89,0l23.35,24a.63.63,0,0,1,0,.89Z" transform="translate(-3.6 -2.87)"/><path d="M129.37,76,92.46,71.35a.63.63,0,0,0-.7.54L87.08,108.8a.63.63,0,0,0,.54.7l36.91,4.68a.63.63,0,0,0,.7-.54l4.68-36.91A.63.63,0,0,0,129.37,76Zm-5.74,35.55a.63.63,0,0,1-.7.54l-33.25-4.22a.63.63,0,0,1-.54-.7L93.36,74a.63.63,0,0,1,.7-.54l33.25,4.22a.63.63,0,0,1,.54.7Z" transform="translate(-3.6 -2.87)"/><path d="M198.37,161l-36.91-4.68a.63.63,0,0,0-.7.54l-4.68,36.91a.63.63,0,0,0,.54.7l36.91,4.68a.63.63,0,0,0,.7-.54l4.68-36.91A.63.63,0,0,0,198.37,161Zm-5.74,35.55a.63.63,0,0,1-.7.54l-33.25-4.22a.63.63,0,0,1-.54-.7L162.36,159a.63.63,0,0,1,.7-.54l33.25,4.22a.63.63,0,0,1,.54.7Z" transform="translate(-3.6 -2.87)"/><path d="M246.78,158.43a19.28,19.28,0,1,0,19.28,19.28A19.28,19.28,0,0,0,246.78,158.43Zm0,36.62a17.34,17.34,0,1,1,17.34-17.34A17.34,17.34,0,0,1,246.78,195.05Z" transform="translate(-3.6 -2.87)"/><path d="M205.78,106.43a19.28,19.28,0,1,0,19.28,19.28A19.28,19.28,0,0,0,205.78,106.43Zm0,36.62a17.34,17.34,0,1,1,17.34-17.34A17.34,17.34,0,0,1,205.78,143.05Z" transform="translate(-3.6 -2.87)"/><path d="M276.78,3.43a19.28,19.28,0,1,0,19.28,19.28A19.28,19.28,0,0,0,276.78,3.43Zm0,36.62a17.34,17.34,0,1,1,17.34-17.34A17.34,17.34,0,0,1,276.78,40.05Z" transform="translate(-3.6 -2.87)"/><path d="M48.78,69.43A19.28,19.28,0,1,0,68.06,88.72,19.28,19.28,0,0,0,48.78,69.43Zm0,36.62A17.34,17.34,0,1,1,66.12,88.72,17.34,17.34,0,0,1,48.78,106.05Z" transform="translate(-3.6 -2.87)"/><path d="M129.78,158.43a19.28,19.28,0,1,0,19.28,19.28A19.28,19.28,0,0,0,129.78,158.43Zm0,36.62a17.34,17.34,0,1,1,17.34-17.34A17.34,17.34,0,0,1,129.78,195.05Z" transform="translate(-3.6 -2.87)"/><path d="M78.78,116.43a19.28,19.28,0,1,0,19.28,19.28A19.28,19.28,0,0,0,78.78,116.43Zm0,36.62a17.34,17.34,0,1,1,17.34-17.34A17.34,17.34,0,0,1,78.78,153.05Z" transform="translate(-3.6 -2.87)"/><path d="M68.92,57.84l1.82-.48-.2-.22a1.52,1.52,0,0,1-.32-1.2L78.34,19.5c.08-.38.36-.45.62-.16l25,27.76a1.52,1.52,0,0,1,.32,1.2l-.06.28L106,48.1l.06-.28a1.52,1.52,0,0,0-.32-1.2L78,15.8c-.26-.29-.54-.21-.62.16l-9,40.45a1.52,1.52,0,0,0,.32,1.2Z" transform="translate(-3.6 -2.87)"/><rect x="68.95" y="50.7" width="36.14" height="2.35" transform="translate(-13.92 20.93) rotate(-14.71)"/><path d="M247.92,128.84l1.82-.48-.2-.22a1.52,1.52,0,0,1-.32-1.2l8.11-36.44c.08-.38.36-.45.62-.16l25,27.76a1.52,1.52,0,0,1,.32,1.2l-.06.28,1.82-.48.06-.28a1.52,1.52,0,0,0-.32-1.2L257,86.8c-.26-.29-.54-.21-.62.16l-9,40.45a1.52,1.52,0,0,0,.32,1.2Z" transform="translate(-3.6 -2.87)"/><rect x="247.95" y="121.7" width="36.14" height="2.35" transform="translate(-26.08 68.72) rotate(-14.71)"/><path d="M10.53,140.67l1.88-.11-.15-.25a1.52,1.52,0,0,1-.07-1.24L27.35,105c.16-.35.44-.37.64,0l19,32.15a1.52,1.52,0,0,1,.07,1.24l-.12.27,1.88-.11.12-.27a1.52,1.52,0,0,0-.07-1.24L27.78,101.27c-.2-.33-.48-.32-.64,0L10.31,139.18a1.52,1.52,0,0,0,.07,1.24Z" transform="translate(-3.6 -2.87)"/><rect x="11.38" y="137.23" width="36.14" height="2.35" transform="translate(-11.53 -0.94) rotate(-3.31)"/><path d="M128.12,132.7l1.6,1,0-.29a1.52,1.52,0,0,1,.65-1.06l32-19.31c.33-.2.58,0,.55.34l-2.82,37.23a1.52,1.52,0,0,1-.65,1.06l-.25.15,1.6,1,.25-.15a1.52,1.52,0,0,0,.65-1.06l3.13-41.33c0-.39-.22-.54-.55-.34l-35.47,21.43a1.52,1.52,0,0,0-.65,1.06Z" transform="translate(-3.6 -2.87)"/><rect x="126.87" y="140.49" width="36.14" height="2.35" transform="translate(92.09 -57.8) rotate(31.59)"/><path d="M173.62,5.77l0,1.88.26-.13a1.52,1.52,0,0,1,1.24,0L208,25.27c.34.18.33.47,0,.64l-33.5,16.48a1.52,1.52,0,0,1-1.24,0l-.26-.14,0,1.88.26.14a1.52,1.52,0,0,0,1.24,0L211.59,26c.35-.17.35-.46,0-.64L175.12,5.67a1.52,1.52,0,0,0-1.24,0Z" transform="translate(-3.6 -2.87)"/><rect x="156.37" y="23.64" width="36.14" height="2.35" transform="translate(198.9 -152.01) rotate(91.07)"/></svg>