<svg xmlns="http://www.w3.org/2000/svg" viewBox="0 0 1096.15 657.69"><defs><style>.cls-1{fill:none;}.cls-2{fill:#231f20;}</style></defs><title>spin</title><g id="Layer_2" data-name="Layer 2"><g id="Layer_1-2" data-name="Layer 1"><rect class="cls-1" width="1096.15" height="657.69"/><path class="cls-2" d="M17.42,75.83a5.48,5.48,0,0,0,11,0v-28h28a5.48,5.48,0,1,0,0-11h-28v-28a5.48,5.48,0,0,0-11,0v28H0v11H17.42Z"/><path class="cls-2" d="M548.08,47.79v-11H537.46a5.48,5.48,0,1,0,0,11Z"/><path class="cls-2" d="M131.21,10.17,148.82,0H123.21V5.58A5.37,5.37,0,0,0,131.21,10.17Z"/><path class="cls-2" d="M240.21,102.47a5.48,5.48,0,0,0-8.26,7.15h15.41Z"/><path class="cls-2" d="M289.22,106.34a5.48,5.48,0,0,0-9.36-3.88l-7.15,7.15h15.41A5.48,5.48,0,0,0,289.22,106.34Z"/><path class="cls-2" d="M493,109.62V52.19a5.48,5.48,0,0,0-11,0v57.42Z"/><path class="cls-2" d="M262.18,42.31a5.48,5.48,0,0,0,5.48-5.48V0h-11V36.83A5.48,5.48,0,0,0,262.18,42.31Z"/><path class="cls-2" d="M103.66,92.54h56.08v17.08h11V87.06a5.48,5.48,0,0,0-5.48-5.48h-67a5.48,5.48,0,0,0-5.48,5.48v22.56h11Z"/><path class="cls-2" d="M359.13,109.62h11l-.5-1.86L359.78,71l14.4,3.86,36.75,9.85-25,25h15l24-24a5.37,5.37,0,0,0-2.41-8.9l-23.27-6.23-37.12-9.94-8.56-2.29a4.74,4.74,0,0,0-1.29-.17h-.19a4.86,4.86,0,0,0-1.22.16,5.23,5.23,0,0,0-2.44,1.45l-.16.18a5.14,5.14,0,0,0-1.19,2.17A4.75,4.75,0,0,0,347,63a.17.17,0,0,0,0,.07c0,.06,0,.12,0,.17s0,.17,0,.25a4.83,4.83,0,0,0,.17,1.29l6.23,23.27Z"/><path class="cls-2" d="M17.42,623.91a5.48,5.48,0,0,0,11,0v-28h28a5.48,5.48,0,1,0,0-11h-28v-28a5.48,5.48,0,0,0-11,0v28H0v11H17.42Z"/><path class="cls-2" d="M283.74,159.23a5.48,5.48,0,0,0,3.87-9.36L267.79,130l19.83-19.83a5.45,5.45,0,0,0,.51-.6H272.72L260,122.3l-12.68-12.68H231.95a5.45,5.45,0,0,0,.51.6L252.29,130l-19.83,19.83a5.48,5.48,0,0,0,7.75,7.75L260,137.8l19.83,19.83A5.46,5.46,0,0,0,283.74,159.23Z"/><path class="cls-2" d="M482,119.24a5.48,5.48,0,0,0,11,0v-9.62H482Z"/><path class="cls-2" d="M131.7,409.56a5.48,5.48,0,0,0-5.48-5.48h-67a5.48,5.48,0,0,0,0,11h67A5.48,5.48,0,0,0,131.7,409.56Z"/><path class="cls-2" d="M170.7,154.1V109.62h-11v39H103.66v-39h-11V154.1a5.48,5.48,0,0,0,5.48,5.48h67A5.48,5.48,0,0,0,170.7,154.1Z"/><path class="cls-2" d="M297.7,407.07a5.48,5.48,0,0,0,0-7.75l-47.41-47.41a5.48,5.48,0,0,0-7.75,0l-47.41,47.41a5.48,5.48,0,0,0,0,7.75l47.41,47.41a5.48,5.48,0,0,0,7.75,0Zm-90.94-3.87,39.66-39.66,39.66,39.66-39.66,39.66Z"/><path class="cls-2" d="M0,445.27v50.06a39.91,39.91,0,0,0,8.79-25A39.91,39.91,0,0,0,0,445.27Z"/><path class="cls-2" d="M20.93,359.05a5.37,5.37,0,0,0,8-4.59V283.08a5.37,5.37,0,0,0-8-4.59l-20.86,12-.07,0v12.28l18.3-10.57v53L5.44,337.82,0,334.68V347l13.26,7.65Z"/><path class="cls-2" d="M537.46,584.91a5.48,5.48,0,1,0,0,11h10.62v-11Z"/><path class="cls-2" d="M366.62,358.71a5.48,5.48,0,1,0,0,11h28v28a5.48,5.48,0,0,0,11,0v-28h28a5.48,5.48,0,1,0,0-11h-28v-28a5.48,5.48,0,0,0-11,0v28Z"/><path class="cls-2" d="M138.56,242.81l.18,67a5.48,5.48,0,0,0,11,0l-.18-67a5.48,5.48,0,0,0-11,0Z"/><path class="cls-2" d="M121.22,309.9l-.18-67a5.48,5.48,0,1,0-11,0l.18,67a5.48,5.48,0,1,0,11,0Z"/><path class="cls-2" d="M424.4,531.21a5.48,5.48,0,0,0-5.5-5.47l-67,.18a5.48,5.48,0,1,0,0,11l67-.18A5.48,5.48,0,0,0,424.4,531.21Z"/><path class="cls-2" d="M424.32,502.72a5.48,5.48,0,0,0-5.5-5.47l-67,.18a5.48,5.48,0,0,0,0,11l67-.18A5.48,5.48,0,0,0,424.32,502.72Z"/><path class="cls-2" d="M47.77,200.65a5.48,5.48,0,0,0-5.5-5.47L0,195.3v11l42.3-.11A5.48,5.48,0,0,0,47.77,200.65Z"/><path class="cls-2" d="M47.69,172.17a5.48,5.48,0,0,0-5.5-5.47L0,166.82v11l42.23-.11A5.48,5.48,0,0,0,47.69,172.17Z"/><path class="cls-2" d="M523.31,195.36a5.48,5.48,0,0,0,0,11l24.74-.07v-11Z"/><path class="cls-2" d="M548.08,166.82l-24.85.07a5.48,5.48,0,0,0,0,11l24.82-.07Z"/><path class="cls-2" d="M516.76,510.4a40,40,0,0,0,31.31-15.08V445.27a40.1,40.1,0,1,0-31.31,65.13ZM487.48,470.3a29.28,29.28,0,1,1,29.28,29.28A29.31,29.31,0,0,1,487.48,470.3Z"/><path class="cls-2" d="M267.66,303.07A40.11,40.11,0,1,0,227.56,263,40.15,40.15,0,0,0,267.66,303.07Zm0-69.38A29.28,29.28,0,1,1,238.38,263,29.31,29.31,0,0,1,267.66,233.68Z"/><path class="cls-2" d="M548.08,347V334.68l-27.56-15.91,12.91-7.46,14.65-8.46V290.58l-33.21,19.17-7.67,4.43a4.75,4.75,0,0,0-1,.8l-.13.14a4.86,4.86,0,0,0-.75,1,5.23,5.23,0,0,0-.7,2.75c0,.08,0,.16,0,.24a5.14,5.14,0,0,0,.69,2.38,4.74,4.74,0,0,0,.54.75l0,.05.12.13.18.18a4.84,4.84,0,0,0,1,.8l20.86,12Z"/><path class="cls-2" d="M152.07,546.2,185.35,527l7.67-4.43a4.74,4.74,0,0,0,1-.8l.13-.14a4.87,4.87,0,0,0,.75-1,5.23,5.23,0,0,0,.7-2.75c0-.08,0-.16,0-.24a5.15,5.15,0,0,0-.69-2.38,4.76,4.76,0,0,0-.54-.75l0-.05-.12-.13-.18-.18a4.84,4.84,0,0,0-1-.8l-20.86-12-33.28-19.21-7.67-4.43a5.37,5.37,0,0,0-8,4.59v71.38a5.37,5.37,0,0,0,8,4.59Zm-18.23-54.71,12.86,7.42,33,19-12.91,7.46-33,19Z"/><path class="cls-2" d="M373.49,122.1q-1.68-6.24-3.35-12.49h-11l4.17,15.55,2.29,8.56a5.37,5.37,0,0,0,8.9,2.41L401,109.62H386Z"/><path class="cls-2" d="M236.33,648.94a5.47,5.47,0,0,0-4.38,8.75h15.41l-7.15-7.15A5.47,5.47,0,0,0,236.33,648.94Z"/><path class="cls-2" d="M287.62,650.54a5.48,5.48,0,0,0-7.75,0l-7.15,7.15h15.41a5.46,5.46,0,0,0-.52-7.15Z"/><path class="cls-2" d="M487.48,594.79a5.48,5.48,0,0,0-5.48,5.48v57.42h11V600.27A5.48,5.48,0,0,0,487.48,594.79Z"/><path class="cls-2" d="M267.66,584.91v-67a5.48,5.48,0,1,0-11,0v67a5.48,5.48,0,0,0,11,0Z"/><path class="cls-2" d="M169.09,631.26a5.46,5.46,0,0,0-3.87-1.6h-67a5.48,5.48,0,0,0-5.48,5.48v22.56h11V640.61h56.08v17.08h11V635.13A5.48,5.48,0,0,0,169.09,631.26Z"/><path class="cls-2" d="M397.31,268.21h67a5.48,5.48,0,0,0,5.48-5.48v-67a5.48,5.48,0,0,0-5.48-5.48h-67a5.48,5.48,0,0,0-5.48,5.48v67A5.48,5.48,0,0,0,397.31,268.21Zm5.48-11V201.17h56.08v56.08Z"/><path class="cls-2" d="M422.56,624.84l-23.27-6.23-37.12-9.94-8.56-2.29a4.74,4.74,0,0,0-1.29-.17h-.19a4.86,4.86,0,0,0-1.22.16,5.23,5.23,0,0,0-2.44,1.45l-.16.17a5.14,5.14,0,0,0-1.19,2.17,4.75,4.75,0,0,0-.15.91.17.17,0,0,0,0,.07c0,.06,0,.12,0,.17s0,.17,0,.25a4.83,4.83,0,0,0,.17,1.29l6.23,23.27,5.78,21.56h11l-.5-1.86L359.78,619l14.4,3.86,36.75,9.85-25,25h15l24-24A5.37,5.37,0,0,0,422.56,624.84Z"/><path class="cls-2" d="M565.5,47.79v28a5.48,5.48,0,0,0,11,0v-28h28a5.48,5.48,0,1,0,0-11h-28v-28a5.48,5.48,0,0,0-11,0v28H548.08v11Z"/><path class="cls-2" d="M1081.65,38.44a5.48,5.48,0,0,0,3.88,9.35h10.62v-11h-10.62A5.47,5.47,0,0,0,1081.65,38.44Z"/><path class="cls-2" d="M679.29,10.17,696.89,0H671.29V5.58A5.37,5.37,0,0,0,679.29,10.17Z"/><path class="cls-2" d="M788.29,102.47a5.48,5.48,0,0,0-8.26,7.15h15.41Z"/><path class="cls-2" d="M837.3,106.34a5.48,5.48,0,0,0-9.36-3.88l-7.15,7.15h15.41A5.48,5.48,0,0,0,837.3,106.34Z"/><path class="cls-2" d="M1030.08,52.19v57.42h11V52.19a5.48,5.48,0,1,0-11,0Z"/><path class="cls-2" d="M810.26,42.31a5.48,5.48,0,0,0,5.48-5.48V0h-11V36.83A5.48,5.48,0,0,0,810.26,42.31Z"/><path class="cls-2" d="M651.73,92.54h56.08v17.08h11V87.06a5.48,5.48,0,0,0-5.48-5.48h-67a5.48,5.48,0,0,0-5.48,5.48v22.56h11Z"/><path class="cls-2" d="M917.72,107.76,907.86,71l14.4,3.86L959,84.66l-25,25h15l24-24a5.37,5.37,0,0,0-2.41-8.9l-23.27-6.23-37.12-9.94-8.56-2.29a4.74,4.74,0,0,0-1.29-.17h-.19a4.86,4.86,0,0,0-1.22.16,5.23,5.23,0,0,0-2.44,1.45l-.16.18a5.14,5.14,0,0,0-1.19,2.17A4.73,4.73,0,0,0,895,63a.17.17,0,0,0,0,.07c0,.06,0,.12,0,.17s0,.17,0,.25a4.85,4.85,0,0,0,.17,1.29l6.23,23.27,5.78,21.56h11Z"/><path class="cls-2" d="M610,590.39a5.48,5.48,0,0,0-5.48-5.48h-28v-28a5.48,5.48,0,0,0-11,0v28H548.08v11H565.5v28a5.48,5.48,0,0,0,11,0v-28h28a5.48,5.48,0,0,0,5.48-5.48Z"/><path class="cls-2" d="M835.69,110.22a5.44,5.44,0,0,0,.51-.6H820.79L808.11,122.3l-12.68-12.68H780a5.52,5.52,0,0,0,.51.6L800.36,130l-19.83,19.83a5.48,5.48,0,0,0,7.75,7.75l19.83-19.83,19.83,19.83a5.48,5.48,0,1,0,7.75-7.75L815.86,130Z"/><path class="cls-2" d="M1030.08,119.24a5.48,5.48,0,0,0,11,0v-9.62h-11Z"/><path class="cls-2" d="M674.29,404.08h-67a5.48,5.48,0,1,0,0,11h67a5.48,5.48,0,1,0,0-11Z"/><path class="cls-2" d="M718.77,154.1V109.62h-11v39H651.73v-39h-11V154.1a5.48,5.48,0,0,0,5.48,5.48h67A5.48,5.48,0,0,0,718.77,154.1Z"/><path class="cls-2" d="M845.78,399.32l-47.41-47.41a5.48,5.48,0,0,0-7.75,0l-47.41,47.41a5.48,5.48,0,0,0,0,7.75l47.41,47.41a5.48,5.48,0,0,0,7.75,0l47.41-47.41a5.48,5.48,0,0,0,0-7.75Zm-51.28,43.53L754.84,403.2l39.66-39.66,39.66,39.66Z"/><path class="cls-2" d="M556.87,470.3a39.91,39.91,0,0,0-8.79-25v50.06A39.91,39.91,0,0,0,556.87,470.3Z"/><path class="cls-2" d="M566.37,292.29v53l-12.86-7.42-5.44-3.14V347l13.26,7.65,7.67,4.43a5.37,5.37,0,0,0,8-4.59V283.08a5.37,5.37,0,0,0-8-4.59l-20.86,12-.07,0v12.28Z"/><path class="cls-2" d="M1081.65,586.51a5.48,5.48,0,0,0,3.88,9.35h10.62v-11h-10.62A5.47,5.47,0,0,0,1081.65,586.51Z"/><path class="cls-2" d="M942.74,330.67v28h-28a5.48,5.48,0,1,0,0,11h28v28a5.48,5.48,0,0,0,11,0v-28h28a5.48,5.48,0,1,0,0-11h-28v-28a5.48,5.48,0,0,0-11,0Z"/><path class="cls-2" d="M692.11,237.31a5.48,5.48,0,0,0-5.47,5.5l.18,67a5.48,5.48,0,1,0,11,0l-.18-67A5.48,5.48,0,0,0,692.11,237.31Z"/><path class="cls-2" d="M669.3,309.9l-.18-67a5.48,5.48,0,0,0-11,0l.18,67a5.48,5.48,0,0,0,11,0Z"/><path class="cls-2" d="M894.47,531.41a5.48,5.48,0,0,0,5.5,5.47l67-.18a5.48,5.48,0,1,0,0-11l-67,.18A5.48,5.48,0,0,0,894.47,531.41Z"/><path class="cls-2" d="M894.39,502.93a5.48,5.48,0,0,0,5.5,5.47l67-.18a5.48,5.48,0,1,0,0-11l-67,.18A5.48,5.48,0,0,0,894.39,502.93Z"/><path class="cls-2" d="M595.85,200.65a5.48,5.48,0,0,0-5.5-5.47l-42.27.11v11l42.3-.11A5.48,5.48,0,0,0,595.85,200.65Z"/><path class="cls-2" d="M590.3,177.66a5.48,5.48,0,1,0,0-11l-42.2.11v11Z"/><path class="cls-2" d="M1065.92,200.86a5.48,5.48,0,0,0,5.5,5.47l24.74-.07v-11l-24.77.07A5.48,5.48,0,0,0,1065.92,200.86Z"/><path class="cls-2" d="M1065.84,172.38a5.48,5.48,0,0,0,5.5,5.47l24.82-.07v-11l-24.85.07A5.48,5.48,0,0,0,1065.84,172.38Z"/><path class="cls-2" d="M1064.84,430.19a40.11,40.11,0,1,0,31.31,65.13V445.27A40,40,0,0,0,1064.84,430.19Zm29.28,40.11A29.28,29.28,0,1,1,1064.84,441,29.31,29.31,0,0,1,1094.12,470.3Z"/><path class="cls-2" d="M815.74,222.85A40.11,40.11,0,1,0,855.84,263,40.15,40.15,0,0,0,815.74,222.85Zm0,69.38A29.28,29.28,0,1,1,845,263,29.31,29.31,0,0,1,815.74,292.24Z"/><path class="cls-2" d="M1055.27,314.18a4.75,4.75,0,0,0-1,.8l-.13.14a4.87,4.87,0,0,0-.75,1,5.23,5.23,0,0,0-.7,2.75c0,.08,0,.16,0,.24a5.14,5.14,0,0,0,.69,2.38,4.74,4.74,0,0,0,.54.75l0,.05.12.13.18.18a4.84,4.84,0,0,0,1,.8l20.86,12,20,11.56V334.68l-27.56-15.91,12.91-7.46,14.65-8.46V290.58l-33.21,19.17Z"/><path class="cls-2" d="M671.29,482.27v71.38a5.37,5.37,0,0,0,8,4.59l20.86-12L733.43,527l7.67-4.43a4.75,4.75,0,0,0,1-.8l.13-.14a4.85,4.85,0,0,0,.75-1,5.23,5.23,0,0,0,.7-2.75c0-.08,0-.16,0-.24a5.13,5.13,0,0,0-.69-2.38,4.73,4.73,0,0,0-.54-.75l0-.05-.12-.13-.18-.18a4.84,4.84,0,0,0-1-.8l-20.86-12L687,482.11l-7.67-4.43A5.37,5.37,0,0,0,671.29,482.27Zm23.5,16.64,33,19-12.91,7.46-33,19v-53Z"/><path class="cls-2" d="M934.05,109.62,921.57,122.1q-1.68-6.24-3.35-12.49h-11l4.17,15.55,2.29,8.56a5.37,5.37,0,0,0,8.9,2.41l26.52-26.52Z"/><path class="cls-2" d="M784.41,648.94a5.47,5.47,0,0,0-4.39,8.75h15.41l-7.15-7.15A5.47,5.47,0,0,0,784.41,648.94Z"/><path class="cls-2" d="M835.69,650.54a5.48,5.48,0,0,0-7.75,0l-7.15,7.15h15.41a5.47,5.47,0,0,0-.52-7.15Z"/><path class="cls-2" d="M1035.56,594.79a5.48,5.48,0,0,0-5.48,5.48v57.42h11V600.27A5.48,5.48,0,0,0,1035.56,594.79Z"/><path class="cls-2" d="M804.78,517.86v67a5.48,5.48,0,0,0,11,0v-67a5.48,5.48,0,1,0-11,0Z"/><path class="cls-2" d="M717.17,631.26a5.46,5.46,0,0,0-3.88-1.6h-67a5.48,5.48,0,0,0-5.48,5.48v22.56h11V640.61h56.08v17.08h11V635.13A5.48,5.48,0,0,0,717.17,631.26Z"/><path class="cls-2" d="M939.9,195.69v67a5.48,5.48,0,0,0,5.48,5.48h67a5.48,5.48,0,0,0,5.48-5.48v-67a5.48,5.48,0,0,0-5.48-5.48h-67a5.48,5.48,0,0,0-5.48,5.48Zm67,5.48v56.08H950.87V201.17Z"/><path class="cls-2" d="M970.63,624.84l-23.27-6.23-37.12-9.94-8.56-2.29a4.74,4.74,0,0,0-1.29-.17h-.19a4.85,4.85,0,0,0-1.22.16,5.23,5.23,0,0,0-2.44,1.45l-.16.17a5.14,5.14,0,0,0-1.19,2.17,4.73,4.73,0,0,0-.15.91.17.17,0,0,0,0,.07c0,.06,0,.12,0,.17s0,.17,0,.25a4.85,4.85,0,0,0,.17,1.29l6.23,23.27,5.78,21.56h11l-.5-1.86L907.86,619l14.4,3.86L959,632.73l-25,25h15l24-24A5.37,5.37,0,0,0,970.63,624.84Z"/></g></g></svg>