<svg xmlns="http://www.w3.org/2000/svg" xmlns:xlink="http://www.w3.org/1999/xlink" viewBox="0 0 41.67 41.67"><defs><symbol id="StudioM_Royalty-Free_OpMGT_039" data-name="StudioM Royalty-Free OpMGT 039" viewBox="0 0 283.46 283.47"><path d="M0,14.17V28.35L42.52,70.87h0L0,113.39H0v28.35H14.17L70.87,85h0V99.21H85l28.35,28.35v14.17h28.35L70.87,70.87H56.69Zm42.52,85L28.35,113.39H14.17L42.52,85Zm99.21,0V70.87H127.56l14.17-14.17V42.52L113.38,70.87ZM0,42.52V70.87H14.17L0,85V99.21L28.35,70.87ZM70.87,99.21,28.34,141.73H85L70.87,127.56V113.39l28.35,28.35h14.17L70.87,99.21Zm0-56.69L113.38,0H56.69L70.87,14.17V28.35L42.52,0H28.35L70.87,42.52ZM127.56,0,70.87,56.69h0V42.52H56.69L28.35,14.17V0H0L70.87,70.87H85l56.69,56.69V113.39L99.21,70.87l42.52-42.52V0ZM99.21,56.69V42.52l14.17-14.17h14.17Z"/><path d="M141.73,14.17V28.35l42.52,42.52h0l-42.52,42.52h0v28.35H155.9L212.6,85h0V99.21h14.17l28.35,28.35v14.17h28.35L212.6,70.87H198.42Zm42.52,85-14.17,14.17H155.91L184.25,85Zm99.21,0V70.87H269.29l14.18-14.17V42.52L255.12,70.87ZM141.73,42.52V70.87h14.18L141.73,85V99.21l28.35-28.35ZM212.6,99.21l-42.52,42.52h56.69L212.6,127.56V113.39l28.35,28.35h14.17L212.6,99.21Zm0-56.69L255.12,0h-56.7L212.6,14.17V28.35L184.25,0H170.08L212.6,42.52ZM269.29,0,212.6,56.69h0V42.52H198.42L170.08,14.17V0H141.73L212.6,70.87h14.17l56.7,56.69V113.39L240.94,70.87l42.52-42.52V0ZM240.94,56.69V42.52l14.17-14.17h14.17Z"/><path d="M0,155.91v14.17L42.52,212.6h0L0,255.12H0v28.35H14.17l56.69-56.69h0v14.17H85l28.35,28.35v14.17h28.35L70.87,212.6H56.69Zm42.52,85L28.35,255.12H14.17l28.35-28.34Zm99.21,0V212.6H127.56l14.17-14.17V184.25L113.38,212.6ZM0,184.25V212.6H14.17L0,226.77v14.17L28.35,212.6Zm70.87,56.69L28.34,283.47H85L70.87,269.29V255.12l28.35,28.35h14.17L70.87,240.95Zm0-56.69,42.52-42.52H56.69l14.17,14.17v14.17L42.52,141.73H28.35l42.52,42.52Zm56.69-42.52L70.87,198.43h0V184.25H56.69L28.35,155.91V141.73H0L70.87,212.6H85l56.69,56.69V255.12L99.21,212.6l42.52-42.52V141.73ZM99.21,198.43V184.25l14.17-14.17h14.17Z"/><path d="M141.73,155.91v14.17l42.52,42.52h0l-42.52,42.52h0v28.35H155.9l56.69-56.69h0v14.17h14.17l28.35,28.35v14.17h28.35L212.6,212.6H198.42Zm42.52,85-14.17,14.17H155.91l28.35-28.34Zm99.21,0V212.6H269.29l14.18-14.17V184.25L255.12,212.6ZM141.73,184.25V212.6h14.18l-14.18,14.17v14.17l28.35-28.35Zm70.87,56.69-42.52,42.52h56.69L212.6,269.29V255.12l28.35,28.35h14.17L212.6,240.95Zm0-56.69,42.52-42.52h-56.7l14.17,14.17v14.17l-28.35-28.35H170.08l42.52,42.52Zm56.69-42.52L212.6,198.43h0V184.25H198.42l-28.35-28.35V141.73H141.73L212.6,212.6h14.17l56.7,56.69V255.12L240.94,212.6l42.52-42.52V141.73Zm-28.35,56.69V184.25l14.17-14.17h14.17Z"/></symbol></defs><title>weird</title><g id="Layer_2" data-name="Layer 2"><g id="Vector_Graphics" data-name="Vector Graphics"><use width="283.46" height="283.47" transform="scale(0.15)" xlink:href="#StudioM_Royalty-Free_OpMGT_039"/></g></g></svg>