<svg xmlns="http://www.w3.org/2000/svg" viewBox="0 0 684.08 123.6"><defs><style>.cls-1{fill:#231f20;}</style></defs><title>wordmark</title><g id="Layer_2" data-name="Layer 2"><g id="Layer_1-2" data-name="Layer 1"><path class="cls-1" d="M30.81,123.6H24.16L20,106.13c-.49-2-1-4.56-1.16-5.82-.15,1.26-.63,3.83-1.12,5.82L13.44,123.6H7.08L0,89.64H7.08l3,16.54c.29,1.65.68,4.17.83,5.58.24-1.41.77-3.93,1.16-5.58l4-16.54h5.92l4,16.54c.39,1.65.92,4.17,1.16,5.58.15-1.41.53-4,.83-5.58l3-16.54h7Z"/><path class="cls-1" d="M112.49,123.6,109.83,116H97.41l-2.67,7.57H87.46l13-34h6.6l12.9,34Zm-7.18-20.18c-.68-2-1.36-4-1.7-5.29-.34,1.26-1,3.3-1.7,5.29l-2.18,6.16h7.76Z"/><path class="cls-1" d="M174.78,123.6v-34h6.79V116.9h17v6.7Z"/><path class="cls-1" d="M253.36,123.6v-34h6.79V116.9h17v6.7Z"/><path class="cls-1" d="M346.21,111.57h-7.47v12h-6.79v-34h14.84c6.41,0,11.69,3.54,11.69,10.77C358.48,108.27,353.24,111.57,346.21,111.57Zm.34-15.33h-7.81V105h7.91c3.15,0,4.85-1.45,4.85-4.42S349.56,96.24,346.55,96.24Z"/><path class="cls-1" d="M432.46,123.6,429.79,116H417.37l-2.67,7.57h-7.28l13-34H427l12.9,34Zm-7.18-20.18c-.68-2-1.36-4-1.7-5.29-.34,1.26-1,3.3-1.7,5.29l-2.18,6.16h7.76Z"/><path class="cls-1" d="M509,111.57h-7.47v12h-6.79v-34h14.85c6.4,0,11.69,3.54,11.69,10.77C521.28,108.27,516,111.57,509,111.57Zm.34-15.33h-7.81V105h7.91c3.15,0,4.85-1.45,4.85-4.42S512.35,96.24,509.34,96.24Z"/><path class="cls-1" d="M576.24,123.6v-34h23.58v6.65H583v5.87h9.75v6.6H583V117h17.51v6.65Z"/><path class="cls-1" d="M676,123.6l-6.07-12.23h-6.84V123.6h-6.79v-34h15.82c6.4,0,11.69,3.54,11.69,10.77,0,5.09-2.18,8.3-6.5,10l6.5,13.2Zm-4-27.36h-8.88V105h8.88c3.15,0,4.85-1.45,4.85-4.42S675,96.24,671.94,96.24Z"/><path class="cls-1" d="M.39,1.08H51.31V17.88h-32v8.67H48.6V42.8H19.35v9.75h33V69.34H.39Z"/><path class="cls-1" d="M139.07,1.08,116.86,69.34H95.19L73,1.08H93L106,45,119,1.08Z"/><path class="cls-1" d="M191.62,70.43c-19.5,0-34.67-15.17-34.67-35.21S172.12,0,191.62,0,226.3,15.17,226.3,35.21,211.13,70.43,191.62,70.43Zm0-18.42c8.67,0,15.71-7,15.71-16.79s-7-16.79-15.71-16.79-15.71,7-15.71,16.79S183,52,191.62,52Z"/><path class="cls-1" d="M251.76,1.08h19V50.92h29.8V69.34H251.76Z"/><path class="cls-1" d="M340.07,1.08V40.63c0,7,4.33,11.38,10.83,11.38s10.84-4.33,10.84-11.38V1.08h19V40.63c0,18.42-11.38,29.8-29.8,29.8S321.11,59,321.11,40.63V1.08Z"/><path class="cls-1" d="M441.38,69.34h-19V19.5H404V1.08h55.8V19.5H441.38Z"/><path class="cls-1" d="M502.59,69.34h-19V1.08h19Z"/><path class="cls-1" d="M562.73,70.43c-19.5,0-34.67-15.17-34.67-35.21S543.23,0,562.73,0,597.4,15.17,597.4,35.21,582.23,70.43,562.73,70.43Zm0-18.42c8.67,0,15.71-7,15.71-16.79s-7-16.79-15.71-16.79S547,25.46,547,35.21,554.06,52,562.73,52Z"/><path class="cls-1" d="M684.08,1.08V69.34H666.74L641.82,34.13V69.34h-19V1.08H640.2L665.12,36.3V1.08Z"/></g></g></svg>